# xmcd
#
# Track frame offsets:
#	150
#	10651
#	31289
#	51682
#	56807
#	83749
#	111479
#	123251
#	134702
#	154564
#	170348
#	181523
#	192220
#	209596
#	227219
#
# Disc length: 3185
#
# Revision: 0
# Processed by: cddbd v1.5.2PL0 Copyright (c) Steve Scherf et al.
# Submitted via: Broken Cross Disk Manager 3.81.2155
#
DISCID=cf0c6f0f
DTITLE=Pappo´s blues - Hombre suburbano
DYEAR=1998
DGENRE=
TTITLE0=Hombre suburbano
TTITLE1=Blues de Santa Fe
TTITLE2=Sucio y desprolijo
TTITLE3=Trabajando en el ferrocarril
TTITLE4=Malas compañias
TTITLE5=Siempre es lo mismo
TTITLE6=Tren de las 16 hs.
TTITLE7=Fiesta cervezal
TTITLE8=Algo ha cambiado
TTITLE9=Llegara la paz
TTITLE10=El sur de la ciudad
TTITLE11=Pajaro metalico
TTITLE12=Caras en el parque
TTITLE13=Insoluble
TTITLE14=Desconfio de la vida
EXTD=
EXTT0=
EXTT1=
EXTT2=
EXTT3=
EXTT4=
EXTT5=
EXTT6=
EXTT7=
EXTT8=
EXTT9=
EXTT10=
EXTT11=
EXTT12=
EXTT13=
EXTT14=
PLAYORDER=
